<?xml version="1.0" encoding="utf-8"?>
<!-- Generator: Adobe Illustrator 23.0.3, SVG Export Plug-In . SVG Version: 6.00 Build 0)  -->
<svg version="1.1" id="Livello_1" xmlns="http://www.w3.org/2000/svg" xmlns:xlink="http://www.w3.org/1999/xlink" x="0px" y="0px"
	 viewBox="0 0 256 256" style="enable-background:new 0 0 256 256;" xml:space="preserve">
<style type="text/css">
	.st0{fill:#FFFFFF;}
	.st1{fill:#9BC22F;}
</style>
<g>
	<g>
		<path class="st0" d="M73.1,27.6c0,2.9-0.1,5.6,0,8.3c0,1.2-0.4,2-1.4,2.7c-5.3,3.9-10.6,7.9-15.8,12c-0.7,0.5-1.3,1.6-1.3,2.3
			c-0.1,26.5-0.1,53.1-0.1,79.6c0,0.8,0.4,1.8,1,2.4c5.1,5.3,10.3,10.5,15.5,15.6c0.7,0.7,2,1.3,3,1.3c35.8,0.1,71.7,0,107.5,0.1
			c1.3,0,2.3-0.4,3.2-1.4c5-5,9.9-10,15-14.9c1.1-1.1,1.6-2.1,1.6-3.7c-0.1-23.5-0.1-47-0.1-70.5c0-2.8,0.1-5.5-0.2-8.3
			c-0.1-1-0.6-2.1-1.4-2.8c-4.8-4.3-9.7-8.4-14.5-12.7c-1-0.9-2.1-1.2-3.5-1.2c-28.8,0-57.6,0-86.4,0c-0.8,0-1.6,0-2.7,0
			c0-3.2,0-6.1,0-9.1C86,27.6,79.6,27.6,73.1,27.6z"/>
		<path d="M73.1,27.6c6.5,0,12.9,0,19.7,0c0,3,0,5.9,0,9.1c1.1,0,1.9,0,2.7,0c28.8,0,57.6,0,86.4,0c1.4,0,2.4,0.3,3.5,1.2
			c4.8,4.3,9.7,8.4,14.5,12.7c0.7,0.6,1.3,1.8,1.4,2.8c0.2,2.7,0.2,5.5,0.2,8.3c0,23.5,0,47,0.1,70.5c0,1.5-0.5,2.6-1.6,3.7
			c-5,4.9-10,9.9-15,14.9c-0.9,0.9-1.9,1.4-3.2,1.4c-35.8,0-71.7,0-107.5-0.1c-1,0-2.3-0.5-3-1.3c-5.2-5.1-10.4-10.4-15.5-15.6
			c-0.6-0.6-1-1.6-1-2.4c0-26.5,0-53.1,0.1-79.6c0-0.8,0.6-1.8,1.3-2.3c5.2-4.1,10.5-8,15.8-12c1-0.7,1.4-1.5,1.4-2.7
			C73,33.2,73.1,30.5,73.1,27.6z M127.8,148.2c17.4,0,34.7,0,52.1,0c1.5,0,2.6-0.4,3.7-1.5c4.1-4.2,8.3-8.4,12.6-12.6
			c1.1-1.1,1.5-2.2,1.5-3.7c-0.1-23.7-0.1-47.5-0.1-71.2c0-1.5,0.1-3-0.2-4.4c-0.2-0.9-0.7-2-1.3-2.6c-4-3.5-8.1-6.9-12-10.5
			c-1.2-1.1-2.4-1.4-4-1.4c-27.5,0-54.9,0-82.4,0c-2.3,0-4.5-0.1-6.8,0c-1.5,0.1-1.9-0.5-1.9-1.9c0.1-1.9,0-3.8,0-5.7
			c0-1.1-0.4-1.5-1.5-1.5c-3.1,0-6.1,0-9.2,0c-1.1,0-1.5,0.5-1.5,1.6c0,1.5-0.1,2.9,0.1,4.4c0.1,1.6-0.5,2.6-1.8,3.5
			c-5.2,3.8-10.2,7.8-15.4,11.6c-1.1,0.8-1.5,1.7-1.5,3.1c0,25.1,0,50.3,0,75.4c0,1,0.6,2.3,1.3,3c4.1,4.3,8.5,8.5,12.6,12.8
			c1.2,1.2,2.4,1.7,4,1.7C93.4,148.2,110.6,148.2,127.8,148.2z"/>
		<path class="st1" d="M127.8,148.2c-17.2,0-34.4,0-51.6,0c-1.7,0-2.9-0.5-4-1.7c-4.2-4.3-8.5-8.5-12.6-12.8c-0.7-0.7-1.3-2-1.3-3
			c-0.1-25.1,0-50.3,0-75.4c0-1.4,0.4-2.2,1.5-3.1c5.2-3.8,10.2-7.8,15.4-11.6c1.3-0.9,1.9-1.9,1.8-3.5c-0.1-1.5,0-2.9-0.1-4.4
			c0-1.1,0.4-1.6,1.5-1.6c3.1,0,6.1,0,9.2,0c1.1,0,1.5,0.4,1.5,1.5c0,1.9,0.1,3.8,0,5.7c-0.1,1.4,0.4,2,1.9,1.9c2.3-0.1,4.5,0,6.8,0
			c27.5,0,54.9,0,82.4,0c1.6,0,2.8,0.4,4,1.4c4,3.6,8.1,6.9,12,10.5c0.7,0.6,1.2,1.7,1.3,2.6c0.3,1.4,0.2,2.9,0.2,4.4
			c0,23.7,0,47.5,0.1,71.2c0,1.5-0.4,2.6-1.5,3.7c-4.3,4.1-8.5,8.3-12.6,12.6c-1.1,1.1-2.2,1.5-3.7,1.5
			C162.5,148.2,145.1,148.2,127.8,148.2z M126.9,129.2c18.5,0,32.9-14.5,33.1-33.3c0.2-18.8-14.6-33.6-32.2-33.7
			C105.6,62.2,94,78.9,93.7,95.8C93.3,115.3,110.1,129.7,126.9,129.2z"/>
		<path d="M126.9,129.2c-16.7,0.5-33.5-14-33.2-33.4c0.3-16.9,11.9-33.7,34.1-33.6c17.6,0.1,32.4,14.8,32.2,33.7
			C159.8,114.7,145.4,129.3,126.9,129.2z M126.9,125.6c16.6,0,29.4-13.1,29.4-30c0-16.6-12.9-29.5-28.6-29.5
			c-20.1,0-30.1,14.9-30.3,30C97.1,113.6,112.3,125.9,126.9,125.6z"/>
	</g>
	<path class="st0" d="M126.9,125.6c-14.6,0.4-29.7-11.9-29.5-29.6c0.2-15.1,10.2-30.1,30.3-30c15.8,0,28.6,13,28.6,29.5
		C156.3,112.5,143.5,125.6,126.9,125.6z"/>
	<g>
		<path class="st1" d="M74.8,212.9c0,1.2-0.2,2.3-0.6,3.3c-0.4,1-1,1.8-1.7,2.6c-0.7,0.7-1.6,1.3-2.6,1.7c-1,0.4-2.1,0.6-3.3,0.6
			c-1.2,0-2.2-0.2-3.3-0.6c-1-0.4-1.9-1-2.6-1.7c-0.7-0.7-1.3-1.6-1.7-2.6c-0.4-1-0.6-2.1-0.6-3.3c0-1.2,0.2-2.3,0.6-3.2
			c0.4-1,1-1.8,1.7-2.5c0.7-0.7,1.6-1.3,2.6-1.7c1-0.4,2.1-0.6,3.3-0.6c1.2,0,2.2,0.2,3.3,0.6c1,0.4,1.9,1,2.6,1.7
			c0.7,0.7,1.3,1.6,1.7,2.5C74.6,210.7,74.8,211.7,74.8,212.9z M71.6,212.9c0-0.7-0.1-1.4-0.3-2.1c-0.2-0.7-0.6-1.2-1-1.8
			c-0.4-0.5-1-0.9-1.6-1.2c-0.6-0.3-1.4-0.5-2.2-0.5c-0.8,0-1.6,0.2-2.2,0.5c-0.6,0.3-1.2,0.7-1.6,1.2c-0.4,0.5-0.8,1.1-1,1.8
			c-0.2,0.7-0.3,1.4-0.3,2.1c0,0.7,0.1,1.4,0.3,2.1c0.2,0.7,0.6,1.3,1,1.8c0.4,0.5,1,0.9,1.6,1.2c0.6,0.3,1.4,0.5,2.2,0.5
			c0.8,0,1.5-0.1,2.2-0.5c0.6-0.3,1.2-0.7,1.6-1.2c0.4-0.5,0.8-1.1,1-1.8C71.5,214.4,71.6,213.7,71.6,212.9z"/>
		<path class="st1" d="M82,228.4h-3v-23.1h3v2.4H82c0.5-0.8,1.2-1.5,2.2-2c1-0.5,2.1-0.8,3.3-0.8c1.1,0,2.2,0.2,3.1,0.6
			c0.9,0.4,1.7,1,2.4,1.7c0.7,0.7,1.2,1.6,1.6,2.6c0.4,1,0.5,2,0.5,3.1c0,1.1-0.2,2.2-0.5,3.2c-0.4,1-0.9,1.9-1.5,2.6
			c-0.7,0.7-1.5,1.3-2.4,1.7c-0.9,0.4-2,0.6-3.2,0.6c-1.1,0-2.1-0.2-3.1-0.7c-1-0.5-1.7-1.1-2.3-2H82V228.4z M92.1,212.9
			c0-0.7-0.1-1.4-0.3-2.1c-0.2-0.7-0.5-1.3-1-1.8c-0.4-0.5-1-0.9-1.6-1.2c-0.6-0.3-1.4-0.5-2.2-0.5c-0.8,0-1.5,0.2-2.1,0.5
			c-0.6,0.3-1.2,0.7-1.6,1.2c-0.5,0.5-0.8,1.1-1,1.8c-0.2,0.7-0.4,1.4-0.4,2.1c0,0.7,0.1,1.4,0.4,2.1c0.2,0.7,0.6,1.3,1,1.8
			c0.5,0.5,1,0.9,1.6,1.2c0.6,0.3,1.3,0.5,2.1,0.5c0.8,0,1.6-0.2,2.2-0.5c0.6-0.3,1.2-0.7,1.6-1.2c0.4-0.5,0.8-1.1,1-1.8
			C92,214.3,92.1,213.6,92.1,212.9z"/>
		<path class="st1" d="M106.9,207.8h-4.1v8c0,0.9,0.2,1.6,0.5,2c0.3,0.4,0.9,0.6,1.6,0.6c0.3,0,0.6,0,0.9-0.1
			c0.3-0.1,0.6-0.1,0.9-0.3l0.1,2.5c-0.4,0.1-0.8,0.2-1.2,0.3c-0.4,0.1-0.9,0.1-1.4,0.1c-1.4,0-2.5-0.4-3.3-1.2
			c-0.8-0.8-1.1-2-1.1-3.6v-8.3h-2.9v-2.5h2.9v-4.4h3v4.4h4.1V207.8z"/>
		<path class="st1" d="M113.6,199.8c0,0.6-0.2,1-0.6,1.4c-0.4,0.4-0.9,0.5-1.4,0.5c-0.6,0-1-0.2-1.4-0.6s-0.6-0.8-0.6-1.4
			c0-0.6,0.2-1,0.6-1.4c0.4-0.4,0.9-0.6,1.4-0.6c0.6,0,1,0.2,1.4,0.6C113.4,198.8,113.6,199.2,113.6,199.8z M113.1,220.6h-3v-15.3h3
			V220.6z"/>
		<path class="st1" d="M123.3,205.7c0.9-0.6,1.9-0.9,3-0.9c1,0,2,0.2,2.8,0.7c0.8,0.5,1.5,1.3,2,2.4c0.5-1,1.2-1.7,2.2-2.3
			c0.9-0.5,1.9-0.8,3-0.8c1,0,1.8,0.2,2.6,0.5c0.7,0.3,1.3,0.8,1.8,1.3c0.5,0.6,0.8,1.2,1,2c0.2,0.8,0.3,1.6,0.3,2.4v9.5h-3v-8.5
			c0-0.6-0.1-1.2-0.2-1.8c-0.1-0.6-0.3-1.1-0.5-1.5c-0.3-0.4-0.6-0.8-1-1c-0.4-0.3-1-0.4-1.6-0.4c-0.7,0-1.3,0.1-1.8,0.4
			c-0.5,0.3-0.9,0.7-1.2,1.1c-0.3,0.5-0.5,1-0.7,1.6c-0.1,0.6-0.2,1.2-0.2,1.8v8.3h-3v-9.1c0-0.6-0.1-1.2-0.2-1.6
			c-0.1-0.5-0.3-0.9-0.5-1.3c-0.3-0.4-0.6-0.6-1-0.8c-0.4-0.2-0.9-0.3-1.5-0.3c-1.1,0-2.1,0.5-2.8,1.4c-0.7,0.9-1.1,2.1-1.1,3.7v8.1
			h-3v-12c0-0.4,0-0.9,0-1.6c0-0.6-0.1-1.2-0.1-1.7h2.9c0,0.4,0.1,0.8,0.1,1.3s0,0.9,0,1.2h0.1C121.8,207,122.4,206.3,123.3,205.7z"
			/>
		<path class="st1" d="M150.6,199.8c0,0.6-0.2,1-0.6,1.4c-0.4,0.4-0.9,0.5-1.4,0.5c-0.6,0-1-0.2-1.4-0.6s-0.6-0.8-0.6-1.4
			c0-0.6,0.2-1,0.6-1.4c0.4-0.4,0.9-0.6,1.4-0.6c0.6,0,1,0.2,1.4,0.6C150.4,198.8,150.6,199.2,150.6,199.8z M150.2,220.6h-3v-15.3h3
			V220.6z"/>
		<path class="st1" d="M166.4,207.8l-8.7,10.3h9.1v2.6h-12.8v-2.5l8.7-10.3h-8.2v-2.5h12V207.8z"/>
		<path class="st1" d="M184.7,212.8c0,0.2,0,0.3,0,0.5c0,0.2,0,0.3,0,0.5h-12.2c0,0.6,0.2,1.2,0.4,1.8c0.3,0.6,0.6,1.1,1.1,1.5
			c0.5,0.4,1,0.7,1.6,1c0.6,0.2,1.2,0.4,1.9,0.4c1,0,1.9-0.2,2.7-0.7c0.8-0.5,1.3-1,1.8-1.6l2.1,1.7c-0.8,1.1-1.8,1.9-2.9,2.4
			c-1.1,0.5-2.3,0.8-3.7,0.8c-1.2,0-2.2-0.2-3.2-0.6c-1-0.4-1.8-0.9-2.6-1.6c-0.7-0.7-1.3-1.5-1.7-2.5c-0.4-1-0.6-2.1-0.6-3.3
			c0-1.2,0.2-2.3,0.6-3.3c0.4-1,1-1.9,1.7-2.6c0.7-0.7,1.6-1.3,2.5-1.7c1-0.4,2-0.6,3.1-0.6c1.1,0,2.1,0.2,3.1,0.5
			c0.9,0.4,1.7,0.9,2.3,1.6c0.6,0.7,1.1,1.5,1.5,2.5C184.5,210.5,184.7,211.6,184.7,212.8z M181.6,211.6c0-0.6-0.1-1.2-0.3-1.7
			c-0.2-0.5-0.5-1-0.8-1.4c-0.4-0.4-0.8-0.7-1.3-0.9c-0.5-0.2-1.1-0.3-1.9-0.3c-0.6,0-1.3,0.1-1.8,0.3c-0.6,0.2-1.1,0.5-1.5,0.9
			c-0.4,0.4-0.8,0.8-1,1.4c-0.3,0.5-0.4,1.1-0.5,1.7H181.6z"/>
		<path class="st1" d="M188.8,207c0-0.6-0.1-1.2-0.1-1.7h2.9c0,0.4,0.1,0.8,0.1,1.3c0,0.5,0,0.9,0,1.2h0.1c0.4-0.9,1.1-1.6,1.9-2.2
			c0.8-0.5,1.8-0.8,2.8-0.8c0.5,0,0.9,0,1.2,0.1l-0.1,2.8c-0.4-0.1-0.9-0.2-1.4-0.2c-0.7,0-1.4,0.1-1.9,0.4c-0.5,0.3-1,0.6-1.3,1.1
			s-0.6,1-0.8,1.6c-0.2,0.6-0.3,1.2-0.3,1.9v8h-3v-12C188.9,208.2,188.9,207.7,188.8,207z"/>
	</g>
	<g>
		<g>
			<path d="M159.9,187.8c-2,0-3.9,0-5.9,0c-3.3,0-4.7-1.4-4.7-4.7c0-2.7,0.1-5.4,0-8.1c-0.1-1.3,0.4-2.2,1.5-2.9
				c0.5-0.3,0.9-0.9,1.3-1.5c0.6-0.9,1.8-1.1,2.6-0.5c0.5,0.4,1.3,0.8,1.9,0.8c3.4,0.1,6.8,0,10.3,0c2.2,0,3.9,1.7,4,3.9
				c0,3,0,6,0,9c0,1.9-2,3.8-3.8,3.8C164.5,187.8,162.2,187.8,159.9,187.8z M160,187.4c2.1,0,4.3,0,6.4,0c2.1,0,3.7-1.6,3.7-3.7
				c0-2.8,0-5.6,0-8.4c0-2.4-1.2-3.6-3.6-3.6c-3.4,0-6.8,0-10.3,0c-0.6,0-1.6-0.1-1.8-0.5c-0.9-1.3-1.5-1.3-2.1,0.1
				c-0.2,0.4-0.6,0.7-1,1c-1.1,0.7-1.5,1.6-1.4,2.9c0.1,2.8,0,5.6,0,8.4c0,2.3,1.4,3.7,3.8,3.7C155.7,187.4,157.9,187.4,160,187.4z"
				/>
			<path class="st1" d="M160,187.4c-2.1,0-4.3,0-6.4,0c-2.3,0-3.7-1.4-3.8-3.7c0-2.8,0.1-5.6,0-8.4c0-1.3,0.3-2.2,1.4-2.9
				c0.4-0.2,0.9-0.6,1-1c0.7-1.5,1.2-1.5,2.1-0.1c0.3,0.4,1.2,0.4,1.8,0.5c3.4,0,6.8,0,10.3,0c2.4,0,3.6,1.2,3.6,3.6
				c0,2.8,0,5.6,0,8.4c0,2.1-1.6,3.7-3.7,3.7C164.3,187.5,162.1,187.4,160,187.4z M159.6,184.7c2.9,0.1,5-2,5-4.9c0-2.8-2-5-4.7-5
				c-2.8,0-5,2.1-5,4.9C154.8,182.5,156.9,184.6,159.6,184.7z"/>
			<path d="M159.7,184.9c-2.8-0.1-4.8-2.3-4.8-5.2c0.1-3,2.2-5.2,5-5.1c2.7,0,4.8,2.3,4.7,5.2C164.7,182.8,162.5,184.9,159.7,184.9z
				 M159.8,184.5c2.4,0,4.5-2.2,4.5-4.8c0-2.5-1.9-4.5-4.3-4.6c-2.7-0.1-4.7,1.9-4.6,4.7C155.4,182.4,157.4,184.4,159.8,184.5z"/>
		</g>
		<g>
			<path d="M180.1,199.2h-4.2v-32.1h4.1v3.3h0.1c0.7-1.1,1.7-2.1,3-2.8c1.3-0.7,2.9-1.1,4.6-1.1c1.6,0,3,0.3,4.3,0.9
				c1.3,0.6,2.4,1.4,3.4,2.4c0.9,1,1.7,2.2,2.2,3.6c0.5,1.4,0.8,2.8,0.8,4.4c0,1.6-0.3,3-0.8,4.4c-0.5,1.4-1.2,2.6-2.1,3.6
				c-0.9,1-2,1.8-3.4,2.4c-1.3,0.6-2.8,0.9-4.4,0.9c-1.5,0-3-0.3-4.3-1c-1.3-0.7-2.4-1.6-3.2-2.8h-0.1V199.2z M194.1,177.7
				c0-1-0.1-1.9-0.4-2.9c-0.3-0.9-0.7-1.8-1.3-2.5c-0.6-0.7-1.3-1.3-2.2-1.7c-0.9-0.4-1.9-0.6-3.1-0.6c-1.1,0-2.1,0.2-2.9,0.6
				c-0.9,0.4-1.6,1-2.3,1.7c-0.6,0.7-1.1,1.5-1.5,2.5c-0.3,0.9-0.5,1.9-0.5,2.9c0,1,0.2,2,0.5,2.9c0.3,0.9,0.8,1.7,1.5,2.4
				c0.6,0.7,1.4,1.3,2.3,1.7c0.9,0.4,1.9,0.6,2.9,0.6c1.2,0,2.2-0.2,3.1-0.7c0.9-0.4,1.6-1,2.2-1.7c0.6-0.7,1-1.5,1.3-2.5
				C193.9,179.7,194.1,178.7,194.1,177.7z"/>
		</g>
		<g>
			<path d="M62.2,167.7l4.8,16.3h0.1l5.1-16.3h4.4l5.2,16.3h0.1l4.8-16.3h4.4L84.1,189h-4.4l-5.3-16h-0.1l-5.2,16h-4.4l-7.1-21.3
				H62.2z"/>
			<path d="M115.2,178.1c0,0.2,0,0.5,0,0.7c0,0.2,0,0.5,0,0.7H98.3c0,0.9,0.2,1.7,0.6,2.5c0.4,0.8,0.9,1.5,1.5,2.1
				c0.6,0.6,1.4,1,2.2,1.4c0.8,0.3,1.7,0.5,2.6,0.5c1.4,0,2.7-0.3,3.7-0.9c1-0.6,1.9-1.4,2.5-2.3l3,2.4c-1.1,1.5-2.5,2.6-4,3.3
				c-1.5,0.7-3.3,1.1-5.1,1.1c-1.6,0-3.1-0.3-4.5-0.8c-1.4-0.5-2.6-1.3-3.5-2.3c-1-1-1.8-2.1-2.3-3.5c-0.6-1.4-0.9-2.9-0.9-4.6
				c0-1.6,0.3-3.2,0.8-4.6c0.6-1.4,1.3-2.6,2.3-3.6c1-1,2.2-1.8,3.5-2.3c1.3-0.6,2.8-0.8,4.4-0.8c1.6,0,3,0.3,4.3,0.8
				c1.3,0.5,2.4,1.2,3.2,2.2c0.9,1,1.6,2.1,2,3.5C115,174.9,115.2,176.4,115.2,178.1z M110.9,176.4c0-0.8-0.2-1.6-0.4-2.4
				c-0.3-0.7-0.6-1.4-1.1-1.9c-0.5-0.5-1.1-1-1.8-1.3c-0.7-0.3-1.6-0.5-2.6-0.5c-0.9,0-1.7,0.2-2.5,0.5c-0.8,0.3-1.5,0.7-2.1,1.3
				c-0.6,0.5-1.1,1.2-1.4,1.9c-0.4,0.7-0.6,1.5-0.7,2.4H110.9z"/>
			<path d="M125.3,185.6v3.4h-4.1V155h4.2v15.9h0.1c0.7-1,1.7-1.9,3-2.7c1.3-0.7,2.8-1.1,4.6-1.1c1.6,0,3,0.3,4.3,0.9
				c1.3,0.6,2.4,1.4,3.4,2.4c0.9,1,1.7,2.2,2.2,3.6c0.5,1.4,0.8,2.8,0.8,4.4c0,1.6-0.3,3-0.8,4.4c-0.5,1.4-1.2,2.6-2.1,3.6
				c-0.9,1-2,1.8-3.4,2.4c-1.3,0.6-2.8,0.9-4.4,0.9c-1.5,0-3-0.3-4.3-1C127.3,187.9,126.2,186.9,125.3,185.6L125.3,185.6z
				 M139.4,178.3c0-1-0.2-1.9-0.4-2.9c-0.3-0.9-0.7-1.7-1.3-2.5c-0.6-0.7-1.3-1.3-2.2-1.7c-0.9-0.4-1.9-0.6-3.1-0.6
				c-1.1,0-2.1,0.2-2.9,0.6c-0.9,0.4-1.6,1-2.3,1.7c-0.6,0.7-1.1,1.5-1.5,2.5c-0.3,0.9-0.5,1.9-0.5,2.9c0,1,0.2,2,0.5,2.9
				c0.3,0.9,0.8,1.7,1.5,2.4c0.6,0.7,1.4,1.3,2.3,1.7c0.9,0.4,1.9,0.6,2.9,0.6c1.2,0,2.2-0.2,3.1-0.6c0.9-0.4,1.6-1,2.2-1.7
				c0.6-0.7,1-1.5,1.3-2.5C139.2,180.2,139.4,179.3,139.4,178.3z"/>
		</g>
	</g>
</g>
</svg>
